<!-- Generator: Adobe Illustrator 21.1.0, SVG Export Plug-In  -->
<svg version="1.1"
	 xmlns="http://www.w3.org/2000/svg" xmlns:xlink="http://www.w3.org/1999/xlink" xmlns:a="http://ns.adobe.com/AdobeSVGViewerExtensions/3.0/"
	 x="0px" y="0px" width="214.2px" height="180px" viewBox="0 0 214.2 180" style="enable-background:new 0 0 214.2 180;"
	 xml:space="preserve">
<style type="text/css">
	.st0{fill:#FFFFFF;}
</style>
<defs>
</defs>
<path class="st0" d="M163.5,180h-35.7c-2.2,0-4.2-2-4.2-4.2V141c0-4.7,0-4.7-5.3-4.7c-2.8,0-6.1-0.3-9.8-1.4
	c-7.2-2.5-10.6-5.3-13.4-8.4c-4.2,3.1-8.9,6.1-18.1,5.6c-9.5-0.8-13.7-5-17.6-8.6c-0.3-0.3-0.6-0.6-0.8-0.8
	c-4.2,2-10.6,3.9-17.6,3.9c-3.3,0-6.7-0.3-10-1.1c-20.9-5-32.9-23.1-30.9-46.3c1.7-18.9,10.9-33.2,24-37.3
	c0.8-6.1,3.9-12.3,8.9-17.3c7.5-7.5,18.4-11.4,27-9.2c7-8.9,17.6-13.9,29-13.9c5.3,0,10.3,1.1,15,3.3c5.6-3.1,11.7-4.7,18.1-4.7
	c8.4,0,16.7,3.1,23.1,8.4c16.2-3.1,31.8,5.3,39,19.5c14.5,5.3,24.2,18.9,24.2,34.6c0,2.5-0.3,5-0.8,7.5c4.2,6.1,6.4,13.1,6.4,20.6
	c0,8.9-3.1,17.3-8.9,24c-0.8,13.9-6.7,22.8-18.7,28.1l-3.1,1.4c-12.3,6.1-13.7,16.7-15.9,31.2l-0.3,1.1
	C167.1,178.6,165.4,180,163.5,180z M132,171.6h27.9c2.2-14.5,4.7-28.1,20.3-36.2c0,0,0.3,0,0.3-0.3l3.1-1.4
	c9.5-4.2,13.4-10.6,13.7-22.3c0-1.1,0.6-2,1.1-2.8c5-5.3,7.8-12.3,7.8-19.5c0-6.1-2-12.3-5.9-17.3c-0.8-1.1-1.1-2.2-0.8-3.6
	c0.6-2.5,0.8-5,0.8-7.5c0-12.5-8.1-23.4-20.1-27c-1.1-0.3-2.2-1.1-2.5-2.2c-4.5-10.3-14.8-16.7-25.6-16.7c-2.2,0-4.5,0.3-6.7,0.8
	c-1.4,0.3-2.8,0-3.9-1.1c-4.7-4.5-11.7-7-18.7-7c-5.6,0-10.9,1.7-15.6,4.7c-1.4,0.8-3.1,0.8-4.2,0.3c-4.2-2.2-8.6-3.3-13.4-3.3
	c-9.5,0-18.1,4.7-23.4,12.3c-0.8,1.1-2.2,2-3.6,1.7h-1.1c-0.6,0-1.4,0-2.2-0.3c-1.1-0.3-2.5-0.6-3.6-0.6c-5.3,0-11.4,2.8-15.9,7.2
	c-4.2,4.2-6.7,9.5-6.7,14.8c0,2-1.4,3.6-3.3,4.2C18.9,50.7,10.8,62.7,9.4,79.4C8,94.2,13.9,112,33.9,116.7c2.5,0.6,5.3,0.8,8.1,0.8
	c7.2,0,13.1-2.2,15.9-4.2c1.7-1.1,3.6-0.8,5,0.3c1.4,1.1,2.5,2.2,3.6,3.3c3.3,3.3,5.6,5.6,12.3,6.1c6.4,0.6,9.2-1.4,13.1-4.5
	c0.8-0.6,1.7-1.4,2.5-2c1.7-1.1,4.2-0.8,5.6,0.6l1.1,1.4c2.8,3.3,4.7,5.6,11.1,7.8c2.5,0.8,4.7,0.8,7.2,1.1
	c5.3,0.3,13.4,0.6,13.4,13.1v30.9H132z"/>
<path class="st0" d="M146.5,180c-2.2,0-4.2-2-4.2-4.2v-26.5c0-12.8,4.5-22.8,13.1-28.1c2.5-1.7,5-2.5,7.5-3.6
	c5.3-2.2,9.5-4.2,11.7-9.5c0.8-2.2,3.3-3.1,5.6-2c2.2,0.8,3.1,3.3,2,5.6c-3.6,8.4-10.3,11.1-16.2,13.7c-2.2,1.1-4.5,2-6.4,3.1
	c-7.8,4.7-9.2,13.9-9.2,20.9v26.5C150.7,178,148.7,180,146.5,180z"/>
<path class="st0" d="M118.3,115.6c-0.8,0-1.4-0.3-2.2-0.6c-2-1.1-2.8-3.6-1.4-5.9c2.8-4.7,2.8-11.4,1.7-20.9c0-0.8-0.3-2.2-0.6-3.9
	c-2.2-10.9-3.1-18.4,1.4-20.9c2.5-1.4,5.6-0.6,8.9,2.5c2.5,2.2,8.1,3.9,11.4,3.9h0.3c13.4,0.3,22.8,12.5,22.8,29.8
	c0,1.4-0.6,2.5-1.7,3.3c-1.1,0.8-2.5,1.1-3.6,0.6c-2-0.6-3.6-0.8-5.6-0.8c-2.5,0-5.9,1.1-8.1,2.8c-2,1.4-4.5,1.1-5.9-0.8
	c-1.4-2-1.1-4.5,0.8-5.9c3.6-2.8,8.6-4.5,12.8-4.5c0.8,0,1.7,0,2.2,0c-1.4-8.6-5.9-16.4-14.2-16.4h-0.3c-4.5,0-10.9-1.7-15-4.7
	c0.3,3.1,1.1,7.2,1.4,9.2c0.3,2,0.6,3.6,0.8,4.5c1.1,8.9,1.7,18.4-2.8,25.9C121.1,114.8,119.7,115.6,118.3,115.6z"/>
<path class="st0" d="M88.5,107.8L88.5,107.8c-2.5,0-4.2-2-4.2-4.2c0.3-8.9,5.9-15.6,10-20.1c-0.8-1.4-1.7-2.8-2.2-4.2
	c-3.9,1.4-8.4,2-12.5,1.1c-0.6,0-1.1-0.3-1.7-0.3c-5,11.7-17.3,19.2-29.5,17.3l0,0h-0.3c-3.6-0.6-7.2,0-11.4,1.7
	c-2.2,0.8-4.5-0.3-5.3-2.5c-0.8-2.2,0.3-4.5,2.5-5.3c3.6-1.4,8.9-3.1,15.6-2h0.3c9.5,1.4,18.9-5.3,21.7-15.3
	c0.3-1.1,1.1-2.2,2.2-2.5c1.1-0.6,2.2-0.6,3.3-0.3c1.4,0.6,2.8,0.8,4.2,1.1c3.9,0.6,8.1-0.3,11.7-2.2c1.1-0.6,2.5-0.8,3.6-0.3
	c1.1,0.6,2.2,1.7,2.5,2.8c0.8,3.1,2.2,6.1,4.5,8.6c1.4,1.7,1.4,4.2-0.3,5.6l-0.8,0.8c-3.3,3.3-9.2,8.9-9.5,16.2
	C92.7,106.2,90.8,107.8,88.5,107.8z"/>
<path class="st0" d="M56.8,72.2c-1.1,0-2-0.3-2.8-1.1c-5.3-4.7-15-2-17.8-0.8c-2.2,0.8-4.5-0.3-5.3-2.5c-0.8-2.2,0.3-4.5,2.5-5.3
	c4.2-1.4,13.4-3.9,21.2-0.6c1.4-5.3,0.6-10.6-2-15.3c-1.1-2-0.3-4.5,1.7-5.6s4.5-0.3,5.6,1.7c4.7,8.4,4.7,18.7,0.6,27.3
	c-0.6,1.1-1.7,2-3.1,2.2C57.3,72.2,57,72.2,56.8,72.2z"/>
<path class="st0" d="M145.7,59.3c-0.3,0-0.3,0-0.6,0c-13.4-1.7-26.7-13.1-26.2-34.8c0-2.2,2-4.2,4.2-4.2s4.2,2,4.2,4.2
	c-0.3,12.8,5.3,22.3,14.8,25.4c1.1-6.1,3.3-11.4,8.1-16.4c1.7-1.7,4.2-1.7,5.9,0c1.7,1.7,1.7,4.2,0,5.9c-3.9,3.9-5.6,8.4-6.7,16.2
	C149.6,57.7,147.9,59.3,145.7,59.3z"/>
<path class="st0" d="M191.1,98.1c-0.8,0-1.4-0.3-2.2-0.6c-1.7-1.1-7.5-2.2-11.7-1.7c-1.4,0.3-2.5-0.3-3.3-1.1
	c-0.8-0.8-1.4-2.2-1.1-3.3c0.6-5-0.6-10-3.1-15.3c0-0.3-0.3-0.3-0.3-0.6c-1.1-2.2-2.5-4.2-4.2-6.1c-0.8-0.8-1.1-2-1.1-3.1
	c0-1.1,0.6-2.2,1.7-3.1c6.1-4.7,9.5-9.5,10.6-14.2c0.3-2.2,2.5-3.9,4.7-3.3c2.2,0.6,3.9,2.5,3.3,4.7c-1.1,5.9-4.5,11.1-10.3,16.4
	c1.1,1.7,2.2,3.3,3.1,5c0,0.3,0.3,0.3,0.3,0.6c2.5,4.7,3.9,9.8,3.9,14.8c4.5,0.3,9.2,1.4,12,2.8c2,1.1,2.8,3.6,1.4,5.6
	C193.9,97.2,192.5,98.1,191.1,98.1z"/>
<path class="st0" d="M89.6,63c-2,0-3.6-1.4-4.2-3.3c-0.8-3.3-1.1-6.7-0.8-10.3c0-0.3,0-0.3,0-0.6c0.3-5.6,1.7-10.3,3.9-14.8
	c-3.9-2.5-7.2-5.6-8.9-8.4c-1.1-2-0.6-4.5,1.4-5.9c2-1.1,4.5-0.6,5.9,1.4c1.1,1.7,5.3,5.6,9.2,7.2c1.1,0.6,2,1.4,2.5,2.8
	c0.3,1.1,0,2.5-0.6,3.6c-3.1,4.2-4.7,8.9-5,14.8c0,0.3,0,0.3,0,0.6c0,2.5,0.3,5,0.8,7.5c0.6,2.2-0.8,4.5-3.1,5
	C90.2,63,89.9,63,89.6,63z"/>
</svg>
