<svg xmlns="http://www.w3.org/2000/svg" xmlns:xlink="http://www.w3.org/1999/xlink" version="1.1" x="0px" y="0px" viewBox="0 0 100 125" enable-background="new 0 0 100 100" xml:space="preserve"><path d="M69.6,82.9H56.8c-0.8,0-1.5-0.7-1.5-1.5V68.9c0-1.7,0-1.7-1.9-1.7c-1,0-2.2-0.1-3.5-0.5c-2.6-0.9-3.8-1.9-4.8-3  c-1.5,1.1-3.2,2.2-6.5,2c-3.4-0.3-4.9-1.8-6.3-3.1c-0.1-0.1-0.2-0.2-0.3-0.3c-1.5,0.7-3.8,1.4-6.3,1.4c-1.2,0-2.4-0.1-3.6-0.4  c-7.5-1.8-11.8-8.3-11.1-16.6c0.6-6.8,3.9-11.9,8.6-13.4c0.3-2.2,1.4-4.4,3.2-6.2c2.7-2.7,6.6-4.1,9.7-3.3c2.5-3.2,6.3-5,10.4-5  c1.9,0,3.7,0.4,5.4,1.2c2-1.1,4.2-1.7,6.5-1.7c3,0,6,1.1,8.3,3c5.8-1.1,11.4,1.9,14,7c5.2,1.9,8.7,6.8,8.7,12.4  c0,0.9-0.1,1.8-0.3,2.7c1.5,2.2,2.3,4.7,2.3,7.4c0,3.2-1.1,6.2-3.2,8.6c-0.3,5-2.4,8.2-6.7,10.1l-1.1,0.5c-4.4,2.2-4.9,6-5.7,11.2  L71,81.6C70.9,82.4,70.3,82.9,69.6,82.9z M58.3,79.9h10c0.8-5.2,1.7-10.1,7.3-13c0,0,0.1,0,0.1-0.1l1.1-0.5c3.4-1.5,4.8-3.8,4.9-8  c0-0.4,0.2-0.7,0.4-1c1.8-1.9,2.8-4.4,2.8-7c0-2.2-0.7-4.4-2.1-6.2c-0.3-0.4-0.4-0.8-0.3-1.3c0.2-0.9,0.3-1.8,0.3-2.7  c0-4.5-2.9-8.4-7.2-9.7c-0.4-0.1-0.8-0.4-0.9-0.8c-1.6-3.7-5.3-6-9.2-6c-0.8,0-1.6,0.1-2.4,0.3c-0.5,0.1-1,0-1.4-0.4  C60,21.9,57.5,21,55,21c-2,0-3.9,0.6-5.6,1.7c-0.5,0.3-1.1,0.3-1.5,0.1c-1.5-0.8-3.1-1.2-4.8-1.2c-3.4,0-6.5,1.7-8.4,4.4  c-0.3,0.4-0.8,0.7-1.3,0.6l-0.4,0c-0.2,0-0.5,0-0.8-0.1c-0.4-0.1-0.9-0.2-1.3-0.2c-1.9,0-4.1,1-5.7,2.6c-1.5,1.5-2.4,3.4-2.4,5.3  c0,0.7-0.5,1.3-1.2,1.5c-3.9,0.8-6.8,5.1-7.3,11.1c-0.5,5.3,1.6,11.7,8.8,13.4c0.9,0.2,1.9,0.3,2.9,0.3c2.6,0,4.7-0.8,5.7-1.5  c0.6-0.4,1.3-0.3,1.8,0.1c0.5,0.4,0.9,0.8,1.3,1.2c1.2,1.2,2,2,4.4,2.2c2.3,0.2,3.3-0.5,4.7-1.6c0.3-0.2,0.6-0.5,0.9-0.7  c0.6-0.4,1.5-0.3,2,0.2l0.4,0.5c1,1.2,1.7,2,4,2.8c0.9,0.3,1.7,0.3,2.6,0.4c1.9,0.1,4.8,0.2,4.8,4.7V79.9z"/><path d="M63.5,82.9c-0.8,0-1.5-0.7-1.5-1.5v-9.5c0-4.6,1.6-8.2,4.7-10.1c0.9-0.6,1.8-0.9,2.7-1.3c1.9-0.8,3.4-1.5,4.2-3.4  c0.3-0.8,1.2-1.1,2-0.7c0.8,0.3,1.1,1.2,0.7,2c-1.3,3-3.7,4-5.8,4.9c-0.8,0.4-1.6,0.7-2.3,1.1c-2.8,1.7-3.3,5-3.3,7.5v9.5  C65,82.2,64.3,82.9,63.5,82.9z"/><path d="M53.4,59.8c-0.3,0-0.5-0.1-0.8-0.2c-0.7-0.4-1-1.3-0.5-2.1c1-1.7,1-4.1,0.6-7.5c0-0.3-0.1-0.8-0.2-1.4  c-0.8-3.9-1.1-6.6,0.5-7.5c0.9-0.5,2-0.2,3.2,0.9c0.9,0.8,2.9,1.4,4.1,1.4c0,0,0.1,0,0.1,0c4.8,0.1,8.2,4.5,8.2,10.7  c0,0.5-0.2,0.9-0.6,1.2c-0.4,0.3-0.9,0.4-1.3,0.2c-0.7-0.2-1.3-0.3-2-0.3c-0.9,0-2.1,0.4-2.9,1c-0.7,0.5-1.6,0.4-2.1-0.3  c-0.5-0.7-0.4-1.6,0.3-2.1c1.3-1,3.1-1.6,4.6-1.6c0.3,0,0.6,0,0.8,0c-0.5-3.1-2.1-5.9-5.1-5.9c0,0-0.1,0-0.1,0  c-1.6,0-3.9-0.6-5.4-1.7c0.1,1.1,0.4,2.6,0.5,3.3c0.1,0.7,0.2,1.3,0.3,1.6c0.4,3.2,0.6,6.6-1,9.3C54.4,59.5,53.9,59.8,53.4,59.8z"/><path d="M42.7,57C42.7,57,42.7,57,42.7,57c-0.9,0-1.5-0.7-1.5-1.5c0.1-3.2,2.1-5.6,3.6-7.2c-0.3-0.5-0.6-1-0.8-1.5  c-1.4,0.5-3,0.7-4.5,0.4c-0.2,0-0.4-0.1-0.6-0.1c-1.8,4.2-6.2,6.9-10.6,6.2c0,0,0,0,0,0c0,0-0.1,0-0.1,0c-1.3-0.2-2.6,0-4.1,0.6  c-0.8,0.3-1.6-0.1-1.9-0.9c-0.3-0.8,0.1-1.6,0.9-1.9c1.3-0.5,3.2-1.1,5.6-0.7c0,0,0.1,0,0.1,0c3.4,0.5,6.8-1.9,7.8-5.5  c0.1-0.4,0.4-0.8,0.8-0.9c0.4-0.2,0.8-0.2,1.2-0.1c0.5,0.2,1,0.3,1.5,0.4c1.4,0.2,2.9-0.1,4.2-0.8c0.4-0.2,0.9-0.3,1.3-0.1  s0.8,0.6,0.9,1c0.3,1.1,0.8,2.2,1.6,3.1c0.5,0.6,0.5,1.5-0.1,2l-0.3,0.3c-1.2,1.2-3.3,3.2-3.4,5.8C44.2,56.4,43.5,57,42.7,57z"/><path d="M31.3,44.2c-0.4,0-0.7-0.1-1-0.4c-1.9-1.7-5.4-0.7-6.4-0.3c-0.8,0.3-1.6-0.1-1.9-0.9s0.1-1.6,0.9-1.9  c1.5-0.5,4.8-1.4,7.6-0.2c0.5-1.9,0.2-3.8-0.7-5.5c-0.4-0.7-0.1-1.6,0.6-2c0.7-0.4,1.6-0.1,2,0.6c1.7,3,1.7,6.7,0.2,9.8  c-0.2,0.4-0.6,0.7-1.1,0.8C31.5,44.2,31.4,44.2,31.3,44.2z"/><path d="M63.2,39.6c-0.1,0-0.1,0-0.2,0c-4.8-0.6-9.6-4.7-9.4-12.5c0-0.8,0.7-1.5,1.5-1.5c0.8,0,1.5,0.7,1.5,1.5  c-0.1,4.6,1.9,8,5.3,9.1c0.4-2.2,1.2-4.1,2.9-5.9c0.6-0.6,1.5-0.6,2.1,0c0.6,0.6,0.6,1.5,0,2.1c-1.4,1.4-2,3-2.4,5.8  C64.6,39,64,39.6,63.2,39.6z"/><path d="M79.5,53.5c-0.3,0-0.5-0.1-0.8-0.2c-0.6-0.4-2.7-0.8-4.2-0.6c-0.5,0.1-0.9-0.1-1.2-0.4c-0.3-0.3-0.5-0.8-0.4-1.2  c0.2-1.8-0.2-3.6-1.1-5.5c0-0.1-0.1-0.1-0.1-0.2c-0.4-0.8-0.9-1.5-1.5-2.2c-0.3-0.3-0.4-0.7-0.4-1.1c0-0.4,0.2-0.8,0.6-1.1  c2.2-1.7,3.4-3.4,3.8-5.1c0.1-0.8,0.9-1.4,1.7-1.2c0.8,0.2,1.4,0.9,1.2,1.7c-0.4,2.1-1.6,4-3.7,5.9c0.4,0.6,0.8,1.2,1.1,1.8  c0,0.1,0.1,0.1,0.1,0.2c0.9,1.7,1.4,3.5,1.4,5.3c1.6,0.1,3.3,0.5,4.3,1c0.7,0.4,1,1.3,0.5,2C80.5,53.2,80,53.5,79.5,53.5z"/><path d="M43.1,40.9c-0.7,0-1.3-0.5-1.5-1.2c-0.3-1.2-0.4-2.4-0.3-3.7c0-0.1,0-0.1,0-0.2c0.1-2,0.6-3.7,1.4-5.3c-1.4-0.9-2.6-2-3.2-3  c-0.4-0.7-0.2-1.6,0.5-2.1c0.7-0.4,1.6-0.2,2.1,0.5c0.4,0.6,1.9,2,3.3,2.6c0.4,0.2,0.7,0.5,0.9,1c0.1,0.4,0,0.9-0.2,1.3  c-1.1,1.5-1.7,3.2-1.8,5.3c0,0.1,0,0.1,0,0.2c0,0.9,0.1,1.8,0.3,2.7c0.2,0.8-0.3,1.6-1.1,1.8C43.3,40.9,43.2,40.9,43.1,40.9z"/><text x="0" y="115" fill="#000000" font-size="5px" font-weight="bold" font-family="'Helvetica Neue', Helvetica, Arial-Unicode, Arial, Sans-serif">Created by Ray Design</text><text x="0" y="120" fill="#000000" font-size="5px" font-weight="bold" font-family="'Helvetica Neue', Helvetica, Arial-Unicode, Arial, Sans-serif">from the Noun Project</text></svg>