<svg width="33" height="33" viewBox="0 0 33 33" version="1.1" xmlns="http://www.w3.org/2000/svg" xmlns:xlink="http://www.w3.org/1999/xlink">
<title>Group</title>
<desc>Created using Figma</desc>
<g id="Canvas" transform="translate(398 80)">
<g id="Group">
<g id="Group">
<g id="Vector">
<use xlink:href="#path0_stroke" transform="translate(-397 -79)" fill="#DE3527"/>
</g>
<g id="Vector">
<use xlink:href="#path1_stroke" transform="translate(-392.957 -74.9565)" fill="#DE3527"/>
</g>
<g id="Vector">
<use xlink:href="#path2_stroke" transform="translate(-392.957 -74.9565)" fill="#DE3527"/>
</g>
<g id="Vector">
<use xlink:href="#path3_stroke" transform="translate(-392.957 -74.9565)" fill="#DE3527"/>
</g>
<g id="Vector">
<use xlink:href="#path4_stroke" transform="translate(-390.261 -72.2609)" fill="#DE3527"/>
</g>
<g id="Vector">
<use xlink:href="#path5_stroke" transform="translate(-371.391 -74.9565)" fill="#DE3527"/>
</g>
<g id="Vector">
<use xlink:href="#path5_stroke" transform="translate(-371.391 -72.2609)" fill="#DE3527"/>
</g>
<g id="Vector">
<use xlink:href="#path5_stroke" transform="translate(-371.391 -69.5652)" fill="#DE3527"/>
</g>
<g id="Vector">
<use xlink:href="#path5_stroke" transform="translate(-371.391 -61.4783)" fill="#DE3527"/>
</g>
<g id="Vector">
<use xlink:href="#path5_stroke" transform="translate(-371.391 -58.7826)" fill="#DE3527"/>
</g>
<g id="Vector">
<use xlink:href="#path6_stroke" transform="translate(-372.739 -54.7391)" fill="#DE3527"/>
</g>
<g id="Vector">
<use xlink:href="#path6_stroke" transform="translate(-379.478 -54.7391)" fill="#DE3527"/>
</g>
<g id="Vector">
<use xlink:href="#path7_stroke" transform="translate(-392.957 -54.7391)" fill="#DE3527"/>
</g>
<g id="Vector">
<use xlink:href="#path8_stroke" transform="translate(-392.957 -50.6957)" fill="#DE3527"/>
</g>
</g>
</g>
</g>
<defs>
<path id="path0_stroke" d="M 0 0L 0 -0.5C -0.276142 -0.5 -0.5 -0.276142 -0.5 1.11022e-16L 0 0ZM 31 0L 31.5 0C 31.5 -0.276142 31.2761 -0.5 31 -0.5L 31 0ZM 31 31L 31 31.5C 31.2761 31.5 31.5 31.2761 31.5 31L 31 31ZM 0 31L -0.5 31C -0.5 31.2761 -0.276142 31.5 1.11022e-16 31.5L 0 31ZM 0 0.5L 31 0.5L 31 -0.5L 0 -0.5L 0 0.5ZM 30.5 0L 30.5 31L 31.5 31L 31.5 0L 30.5 0ZM 31 30.5L 0 30.5L 0 31.5L 31 31.5L 31 30.5ZM 0.5 31L 0.5 0L -0.5 0L -0.5 31L 0.5 31Z"/>
<path id="path1_stroke" d="M 0 0L 0 -0.5C -0.276142 -0.5 -0.5 -0.276142 -0.5 1.11022e-16L 0 0ZM 16.1739 0L 16.6739 0C 16.6739 -0.276142 16.4501 -0.5 16.1739 -0.5L 16.1739 0ZM 16.1739 16.1739L 16.1739 16.6739C 16.4501 16.6739 16.6739 16.4501 16.6739 16.1739L 16.1739 16.1739ZM 0 16.1739L -0.5 16.1739C -0.5 16.4501 -0.276142 16.6739 1.11022e-16 16.6739L 0 16.1739ZM 0 0.5L 16.1739 0.5L 16.1739 -0.5L 0 -0.5L 0 0.5ZM 15.6739 0L 15.6739 16.1739L 16.6739 16.1739L 16.6739 0L 15.6739 0ZM 16.1739 15.6739L 0 15.6739L 0 16.6739L 16.1739 16.6739L 16.1739 15.6739ZM 0.5 16.1739L 0.5 0L -0.5 0L -0.5 16.1739L 0.5 16.1739Z"/>
<path id="path2_stroke" d="M 0.353553 -0.353553C 0.158291 -0.548816 -0.158291 -0.548816 -0.353553 -0.353553C -0.548816 -0.158291 -0.548816 0.158291 -0.353553 0.353553L 0.353553 -0.353553ZM 15.8204 16.5275C 16.0156 16.7227 16.3322 16.7227 16.5275 16.5275C 16.7227 16.3322 16.7227 16.0156 16.5275 15.8204L 15.8204 16.5275ZM -0.353553 0.353553L 15.8204 16.5275L 16.5275 15.8204L 0.353553 -0.353553L -0.353553 0.353553Z"/>
<path id="path3_stroke" d="M -0.353553 15.8204C -0.548816 16.0156 -0.548816 16.3322 -0.353553 16.5275C -0.158291 16.7227 0.158291 16.7227 0.353553 16.5275L -0.353553 15.8204ZM 16.5275 0.353553C 16.7227 0.158291 16.7227 -0.158291 16.5275 -0.353553C 16.3322 -0.548816 16.0156 -0.548816 15.8204 -0.353553L 16.5275 0.353553ZM 0.353553 16.5275L 16.5275 0.353553L 15.8204 -0.353553L -0.353553 15.8204L 0.353553 16.5275Z"/>
<path id="path4_stroke" d="M 10.2826 5.3913C 10.2826 8.0927 8.0927 10.2826 5.3913 10.2826L 5.3913 11.2826C 8.64498 11.2826 11.2826 8.64498 11.2826 5.3913L 10.2826 5.3913ZM 5.3913 10.2826C 2.68991 10.2826 0.5 8.0927 0.5 5.3913L -0.5 5.3913C -0.5 8.64498 2.13763 11.2826 5.3913 11.2826L 5.3913 10.2826ZM 0.5 5.3913C 0.5 2.68991 2.68991 0.5 5.3913 0.5L 5.3913 -0.5C 2.13763 -0.5 -0.5 2.13763 -0.5 5.3913L 0.5 5.3913ZM 5.3913 0.5C 8.0927 0.5 10.2826 2.68991 10.2826 5.3913L 11.2826 5.3913C 11.2826 2.13763 8.64498 -0.5 5.3913 -0.5L 5.3913 0.5Z"/>
<path id="path5_stroke" d="M 0 -0.5C -0.276142 -0.5 -0.5 -0.276142 -0.5 0C -0.5 0.276142 -0.276142 0.5 0 0.5L 0 -0.5ZM 2.69565 0.5C 2.97179 0.5 3.19565 0.276142 3.19565 0C 3.19565 -0.276142 2.97179 -0.5 2.69565 -0.5L 2.69565 0.5ZM 0 0.5L 2.69565 0.5L 2.69565 -0.5L 0 -0.5L 0 0.5Z"/>
<path id="path6_stroke" d="M 0 0L 0 -0.5C -0.276142 -0.5 -0.5 -0.276142 -0.5 1.11022e-16L 0 0ZM 4.04348 0L 4.54348 0C 4.54348 -0.276142 4.31962 -0.5 4.04348 -0.5L 4.04348 0ZM 4.04348 4.04348L 4.04348 4.54348C 4.31962 4.54348 4.54348 4.31962 4.54348 4.04348L 4.04348 4.04348ZM 0 4.04348L -0.5 4.04348C -0.5 4.31962 -0.276142 4.54348 1.11022e-16 4.54348L 0 4.04348ZM 0 0.5L 4.04348 0.5L 4.04348 -0.5L 0 -0.5L 0 0.5ZM 3.54348 0L 3.54348 4.04348L 4.54348 4.04348L 4.54348 0L 3.54348 0ZM 4.04348 3.54348L 0 3.54348L 0 4.54348L 4.04348 4.54348L 4.04348 3.54348ZM 0.5 4.04348L 0.5 0L -0.5 0L -0.5 4.04348L 0.5 4.04348Z"/>
<path id="path7_stroke" d="M 0 -0.5C -0.276142 -0.5 -0.5 -0.276142 -0.5 0C -0.5 0.276142 -0.276142 0.5 0 0.5L 0 -0.5ZM 9.43478 0.5C 9.71093 0.5 9.93478 0.276142 9.93478 0C 9.93478 -0.276142 9.71093 -0.5 9.43478 -0.5L 9.43478 0.5ZM 0 0.5L 9.43478 0.5L 9.43478 -0.5L 0 -0.5L 0 0.5Z"/>
<path id="path8_stroke" d="M 0 -0.5C -0.276142 -0.5 -0.5 -0.276142 -0.5 0C -0.5 0.276142 -0.276142 0.5 0 0.5L 0 -0.5ZM 6.73913 0.5C 7.01527 0.5 7.23913 0.276142 7.23913 0C 7.23913 -0.276142 7.01527 -0.5 6.73913 -0.5L 6.73913 0.5ZM 0 0.5L 6.73913 0.5L 6.73913 -0.5L 0 -0.5L 0 0.5Z"/>
</defs>
</svg>
