<svg width="90" height="90" viewBox="0 0 90 90" version="1.1" xmlns="http://www.w3.org/2000/svg" xmlns:xlink="http://www.w3.org/1999/xlink">
<title></title>
<desc>Close Icon</desc>
<g id="Canvas" transform="translate(50 119)">
<g id="Vector (Stroke)">
<use xlink:href="#path0_fill" transform="translate(-50 -119)" fill="#FFFFFF"/>
</g>
</g>
<defs>
<path id="path0_fill" fill-rule="evenodd" d="M 1.75736 1.75736C 4.1005 -0.585786 7.89949 -0.585786 10.2426 1.75736L 44.75 36.2647L 79.2574 1.75736C 81.6005 -0.585786 85.3995 -0.585786 87.7426 1.75736C 90.0858 4.1005 90.0858 7.89949 87.7426 10.2426L 53.2353 44.75L 87.7426 79.2574C 90.0858 81.6005 90.0858 85.3995 87.7426 87.7426C 85.3995 90.0858 81.6005 90.0858 79.2574 87.7426L 44.75 53.2353L 10.2426 87.7426C 7.89949 90.0858 4.1005 90.0858 1.75736 87.7426C -0.585786 85.3995 -0.585786 81.6005 1.75736 79.2574L 36.2647 44.75L 1.75736 10.2426C -0.585786 7.89949 -0.585786 4.1005 1.75736 1.75736Z"/>
</defs>
</svg>
