<svg width="97" height="105" viewBox="0 0 97 105" version="1.1" xmlns="http://www.w3.org/2000/svg" xmlns:xlink="http://www.w3.org/1999/xlink">
<title>Vector</title>
<desc>Created using Figma</desc>
<g id="Canvas" transform="translate(-316 123)">
<g id="Vector">
<use xlink:href="#path0_fill" transform="translate(316 -123)" fill="#FFFFFF"/>
<use xlink:href="#path1_fill" transform="translate(316 -123)" fill="#FFFFFF"/>
<use xlink:href="#path2_fill" transform="translate(316 -123)" fill="#FFFFFF"/>
</g>
</g>
<defs>
<path id="path0_fill" fill-rule="evenodd" d="M 33.95 69.0977L 33.95 57.1395L 38.8 57.1395L 38.8 70.8139C 38.8 71.8436 38.1585 72.7627 37.1964 73.1115L 12.9464 81.9021L 12.8921 81.9218C 8.11397 83.5256 4.85 88.4137 4.85 93.2791L 4.85 100.116L 92.15 100.116L 92.15 93.2791C 92.15 87.9738 88.9309 83.5399 84.1081 81.9212L 84.0534 81.9028L 59.8036 73.1115C 58.8415 72.7627 58.2 71.8436 58.2 70.8139L 58.2 57.1395L 63.05 57.1395L 63.05 69.0977L 85.6702 77.2976C 92.4717 79.5938 97 85.8969 97 93.2791L 97 102.558C 97 103.907 95.9143 105 94.575 105L 2.425 105C 1.08571 105 0 103.907 0 102.558L 0 93.2791C 0 86.4329 4.48381 79.6102 11.3297 77.2977L 33.95 69.0977Z"/>
<path id="path1_fill" fill-rule="evenodd" d="M 48.5 4.88372C 36.8416 4.88372 26.675 16.4738 26.675 31.7442C 26.675 47.0146 36.8416 58.6046 48.5 58.6046C 60.1584 58.6046 70.325 47.0146 70.325 31.7442C 70.325 16.4738 60.1584 4.88372 48.5 4.88372ZM 21.825 31.7442C 21.825 14.6481 33.3726 0 48.5 0C 63.6274 0 75.175 14.6481 75.175 31.7442C 75.175 48.8402 63.6274 63.4884 48.5 63.4884C 33.3726 63.4884 21.825 48.8402 21.825 31.7442Z"/>
<path id="path2_fill" fill-rule="evenodd" d="M 52.414 17.5816C 53.2778 17.5938 54.07 18.0679 54.4936 18.8261C 56.5431 22.495 58.6725 24.7468 61.0177 25.9767C 63.3306 27.1897 66.1513 27.5644 69.9036 26.8976C 70.0427 26.8729 70.1837 26.8605 70.325 26.8605L 72.75 26.8605L 72.75 31.7442L 70.5328 31.7442C 66.1277 32.4936 62.2287 32.1183 58.7773 30.3082C 56.1912 28.9518 54.0228 26.8766 52.1283 24.195C 50.3451 25.9556 48.0767 27.4839 45.7045 28.6782C 42.0994 30.4811 37.6764 31.7213 33.95 31.7442C 30.355 31.7359 26.7532 31.0847 23.3898 28.8922L 26.0801 24.8287C 28.5368 26.5432 30.755 26.8688 33.95 26.8605C 37.0136 26.8834 40.3505 25.9259 43.5355 24.3101C 46.7219 22.7058 49.1778 20.6512 50.3006 18.7669C 50.7451 18.0209 51.5501 17.5694 52.414 17.5816Z"/>
</defs>
</svg>
