<svg width="33" height="32" viewBox="0 0 33 32" version="1.1" xmlns="http://www.w3.org/2000/svg" xmlns:xlink="http://www.w3.org/1999/xlink">
<title>Group</title>
<desc>Created using Figma</desc>
<g id="Canvas" transform="translate(258 -17)">
<g id="Group">
<g id="Group">
<g id="Vector">
<use xlink:href="#path0_stroke" transform="translate(-239.478 34.8478)" fill="#DE3725"/>
</g>
<g id="Group">
<g id="Group">
<g id="Vector">
<use xlink:href="#path1_stroke" transform="translate(-248.913 40.913)" fill="#DE3725"/>
</g>
<g id="Vector">
<use xlink:href="#path2_stroke" transform="translate(-257 18)" fill="#DE3725"/>
</g>
<g id="Vector">
<use xlink:href="#path3_stroke" transform="translate(-250.396 26.087)" fill="#DE3725"/>
</g>
<g id="Vector">
<use xlink:href="#path4_stroke" transform="translate(-247.835 36.8696)" fill="#DE3725"/>
</g>
</g>
</g>
</g>
</g>
</g>
<defs>
<path id="path0_stroke" d="M 6.73913 0L 7.1987 -0.19696C 7.11991 -0.380802 6.93914 -0.5 6.73913 -0.5C 6.53912 -0.5 6.35835 -0.380802 6.27956 -0.19696L 6.73913 0ZM 8.76087 4.71739L 8.3013 4.91435C 8.38009 5.09819 8.56086 5.21739 8.76087 5.21739L 8.76087 4.71739ZM 13.4783 4.71739L 13.7984 5.1015C 13.9601 4.96674 14.0201 4.74512 13.9484 4.54718C 13.8767 4.34924 13.6888 4.21739 13.4783 4.21739L 13.4783 4.71739ZM 9.43478 8.08696L 9.11469 7.70285C 8.95137 7.83895 8.89197 8.06345 8.96662 8.26252L 9.43478 8.08696ZM 11.4565 13.4783L 11.1659 13.8851C 11.3449 14.013 11.5865 14.0088 11.761 13.8749C 11.9355 13.7409 12.0019 13.5087 11.9247 13.3027L 11.4565 13.4783ZM 6.73913 10.1087L 7.02975 9.70183C 6.8559 9.57765 6.62236 9.57765 6.44851 9.70183L 6.73913 10.1087ZM 2.02174 13.4783L 1.55357 13.3027C 1.47633 13.5087 1.54279 13.7409 1.71729 13.8749C 1.8918 14.0088 2.13335 14.013 2.31236 13.8851L 2.02174 13.4783ZM 4.04348 8.08696L 4.51164 8.26252C 4.58629 8.06345 4.5269 7.83895 4.36357 7.70285L 4.04348 8.08696ZM 0 4.71739L 0 4.21739C -0.21051 4.21739 -0.398473 4.34924 -0.470136 4.54718C -0.541799 4.74512 -0.481811 4.96674 -0.320092 5.1015L 0 4.71739ZM 4.71739 4.71739L 4.71739 5.21739C 4.91741 5.21739 5.09817 5.09819 5.17696 4.91435L 4.71739 4.71739ZM 6.27956 0.19696L 8.3013 4.91435L 9.22044 4.52043L 7.1987 -0.19696L 6.27956 0.19696ZM 8.76087 5.21739L 13.4783 5.21739L 13.4783 4.21739L 8.76087 4.21739L 8.76087 5.21739ZM 13.1582 4.33328L 9.11469 7.70285L 9.75488 8.47107L 13.7984 5.1015L 13.1582 4.33328ZM 8.96662 8.26252L 10.9884 13.6538L 11.9247 13.3027L 9.90295 7.9114L 8.96662 8.26252ZM 11.7471 13.0714L 7.02975 9.70183L 6.44851 10.5156L 11.1659 13.8851L 11.7471 13.0714ZM 6.44851 9.70183L 1.73112 13.0714L 2.31236 13.8851L 7.02975 10.5156L 6.44851 9.70183ZM 2.4899 13.6538L 4.51164 8.26252L 3.57531 7.9114L 1.55357 13.3027L 2.4899 13.6538ZM 4.36357 7.70285L 0.320092 4.33328L -0.320092 5.1015L 3.72339 8.47107L 4.36357 7.70285ZM 0 5.21739L 4.71739 5.21739L 4.71739 4.21739L 0 4.21739L 0 5.21739ZM 5.17696 4.91435L 7.1987 0.19696L 6.27956 -0.19696L 4.25782 4.52043L 5.17696 4.91435Z"/>
<path id="path1_stroke" d="M 3.54348 2.02174C 3.54348 2.86217 2.86217 3.54348 2.02174 3.54348L 2.02174 4.54348C 3.41446 4.54348 4.54348 3.41446 4.54348 2.02174L 3.54348 2.02174ZM 2.02174 3.54348C 1.18131 3.54348 0.5 2.86217 0.5 2.02174L -0.5 2.02174C -0.5 3.41446 0.629021 4.54348 2.02174 4.54348L 2.02174 3.54348ZM 0.5 2.02174C 0.5 1.18131 1.18131 0.5 2.02174 0.5L 2.02174 -0.5C 0.629021 -0.5 -0.5 0.629021 -0.5 2.02174L 0.5 2.02174ZM 2.02174 0.5C 2.86217 0.5 3.54348 1.18131 3.54348 2.02174L 4.54348 2.02174C 4.54348 0.629021 3.41446 -0.5 2.02174 -0.5L 2.02174 0.5Z"/>
<path id="path2_stroke" d="M 0 -0.5C -0.276142 -0.5 -0.5 -0.276142 -0.5 0C -0.5 0.276142 -0.276142 0.5 0 0.5L 0 -0.5ZM 4.71739 0L 5.2041 -0.11452C 5.15096 -0.340378 4.94942 -0.5 4.71739 -0.5L 4.71739 0ZM 10.1087 22.913L 9.62199 23.0276C 9.67513 23.2534 9.87667 23.413 10.1087 23.413L 10.1087 22.913ZM 15.5 23.413C 15.7761 23.413 16 23.1892 16 22.913C 16 22.6369 15.7761 22.413 15.5 22.413L 15.5 23.413ZM 0 0.5L 4.71739 0.5L 4.71739 -0.5L 0 -0.5L 0 0.5ZM 4.23068 0.11452L 9.62199 23.0276L 10.5954 22.7985L 5.2041 -0.11452L 4.23068 0.11452ZM 10.1087 23.413L 15.5 23.413L 15.5 22.413L 10.1087 22.413L 10.1087 23.413Z"/>
<path id="path3_stroke" d="M 21.8996 5.9071C 21.8122 6.16908 21.9538 6.45224 22.2158 6.53956C 22.4778 6.62688 22.7609 6.4853 22.8483 6.22333L 21.8996 5.9071ZM 24.3957 0L 24.87 0.158114C 24.9208 0.00563986 24.8953 -0.161971 24.8013 -0.292355C 24.7073 -0.422739 24.5564 -0.5 24.3957 -0.5L 24.3957 0ZM 1.28539e-07 -0.5C -0.276142 -0.5 -0.5 -0.276142 -0.5 0C -0.5 0.276142 -0.276142 0.5 1.28539e-07 0.5L 1.28539e-07 -0.5ZM 22.8483 6.22333L 24.87 0.158114L 23.9213 -0.158114L 21.8996 5.9071L 22.8483 6.22333ZM 24.3957 -0.5L 1.28539e-07 -0.5L 1.28539e-07 0.5L 24.3957 0.5L 24.3957 -0.5Z"/>
<path id="path4_stroke" d="M 2.57077e-07 -0.5C -0.276142 -0.5 -0.5 -0.276142 -0.5 0C -0.5 0.276142 -0.276142 0.5 2.57077e-07 0.5L 2.57077e-07 -0.5ZM 6.33478 0.5C 6.61092 0.5 6.83478 0.276142 6.83478 0C 6.83478 -0.276142 6.61092 -0.5 6.33478 -0.5L 6.33478 0.5ZM 2.57077e-07 0.5L 6.33478 0.5L 6.33478 -0.5L 2.57077e-07 -0.5L 2.57077e-07 0.5Z"/>
</defs>
</svg>
