<svg width="33" height="33" viewBox="0 0 33 33" version="1.1" xmlns="http://www.w3.org/2000/svg" xmlns:xlink="http://www.w3.org/1999/xlink">
<title>Group</title>
<desc>Created using Figma</desc>
<g id="Canvas" transform="translate(118 78)">
<g id="Group">
<g id="Group">
<g id="Vector">
<use xlink:href="#path0_stroke" transform="translate(-104.128 -62.1739)" fill="#DE3725"/>
</g>
<g id="Vector">
<use xlink:href="#path1_stroke" transform="translate(-117 -77)" fill="#DE3725"/>
</g>
<g id="Vector">
<use xlink:href="#path2_stroke" transform="translate(-117 -59.4783)" fill="#DE3725"/>
</g>
<g id="Vector">
<use xlink:href="#path3_stroke" transform="translate(-88.6956 -66.2174)" fill="#DE3725"/>
</g>
<g id="Vector">
<use xlink:href="#path4_stroke" transform="translate(-108.913 -66.2174)" fill="#DE3725"/>
</g>
<g id="Vector">
<use xlink:href="#path5_stroke" transform="translate(-103.522 -66.2174)" fill="#DE3725"/>
</g>
<g id="Vector">
<use xlink:href="#path6_stroke" transform="translate(-98.1304 -77)" fill="#DE3725"/>
</g>
<g id="Vector">
<use xlink:href="#path7_stroke" transform="translate(-98.1304 -67.5652)" fill="#DE3725"/>
</g>
<g id="Vector">
<use xlink:href="#path7_stroke" transform="translate(-98.1304 -74.3043)" fill="#DE3725"/>
</g>
<g id="Vector">
<use xlink:href="#path8_stroke" transform="translate(-117 -72.9565)" fill="#DE3725"/>
</g>
<g id="Vector">
<use xlink:href="#path9_stroke" transform="translate(-90.0435 -62.8478)" fill="#DE3725"/>
</g>
</g>
</g>
</g>
<defs>
<path id="path0_stroke" d="M 16.96 16.099C 16.9186 16.372 17.1064 16.6269 17.3794 16.6683C 17.6525 16.7096 17.9073 16.5218 17.9487 16.2488L 16.96 16.099ZM 18.1283 11.7261L 18.6226 11.801C 18.6264 11.7762 18.6283 11.7512 18.6283 11.7261L 18.1283 11.7261ZM 17.3196 10.3783L 17.5432 9.93105C 17.5245 9.9217 17.5052 9.91354 17.4855 9.90661L 17.3196 10.3783ZM 10.0413 7.81739L 9.5413 7.81739C 9.5413 8.02956 9.67521 8.21863 9.87535 8.28905L 10.0413 7.81739ZM 5.99783 13.0739L 5.6092 13.3885C 5.74248 13.5531 5.96502 13.6159 6.16469 13.5452C 6.36436 13.4746 6.49783 13.2857 6.49783 13.0739L 5.99783 13.0739ZM 3.70652 10.2435L 4.09514 9.92888C 4.08414 9.91529 4.07244 9.90229 4.06008 9.88993L 3.70652 10.2435ZM 0.202174 10.3783L 0.618199 10.6556C 0.64285 10.6186 0.662462 10.5785 0.676515 10.5364L 0.202174 10.3783ZM 0.202174 11.7261L 0.641121 11.4867C 0.634045 11.4737 0.626396 11.461 0.618199 11.4487L 0.202174 11.7261ZM 2.18931 16.4133C 2.32154 16.6558 2.62526 16.7451 2.86769 16.6129C 3.11011 16.4806 3.19944 16.1769 3.06721 15.9345L 2.18931 16.4133ZM 17.9487 16.2488L 18.6226 11.801L 17.6339 11.6512L 16.96 16.099L 17.9487 16.2488ZM 18.6283 11.7261C 18.6283 11.0253 18.2752 10.297 17.5432 9.93105L 17.096 10.8255C 17.4422 10.9986 17.6283 11.3486 17.6283 11.7261L 18.6283 11.7261ZM 17.4855 9.90661L 10.2073 7.34573L 9.87535 8.28905L 17.1536 10.8499L 17.4855 9.90661ZM 10.5413 7.81739L 10.5413 1.34783L 9.5413 1.34783L 9.5413 7.81739L 10.5413 7.81739ZM 10.5413 1.34783C 10.5413 0.956782 10.4651 0.509288 10.2215 0.143846C 9.95866 -0.250354 9.53168 -0.5 8.96305 -0.5L 8.96305 0.5C 9.2031 0.5 9.31525 0.587311 9.38941 0.698545C 9.48274 0.838539 9.5413 1.06496 9.5413 1.34783L 10.5413 1.34783ZM 8.96305 -0.5L 7.07609 -0.5L 7.07609 0.5L 8.96305 0.5L 8.96305 -0.5ZM 7.07609 -0.5C 6.55248 -0.5 6.14309 -0.231838 5.88104 0.125514C 5.65135 0.450997 5.50313 0.938263 5.49783 1.34783L 6.49783 1.34783C 6.49253 1.08348 6.54647 0.896829 6.68744 0.716878C 6.79604 0.568794 6.92578 0.5 7.07609 0.5L 7.07609 -0.5ZM 5.49783 1.34783L 5.49783 13.0739L 6.49783 13.0739L 6.49783 1.34783L 5.49783 1.34783ZM 6.38645 12.7593L 4.09514 9.92888L 3.3179 10.5581L 5.6092 13.3885L 6.38645 12.7593ZM 4.06008 9.88993C 3.75805 9.5879 3.23213 9.20435 2.62826 9.20435L 2.62826 10.2043C 2.83309 10.2043 3.11586 10.3599 3.35297 10.597L 4.06008 9.88993ZM 2.62826 9.20435L 1.28043 9.20435L 1.28043 10.2043L 2.62826 10.2043L 2.62826 9.20435ZM 1.28043 9.20435C 1.00891 9.20918 0.646215 9.31183 0.388282 9.45779C 0.123291 9.61236 -0.153328 9.86363 -0.272168 10.2201L 0.676515 10.5364C 0.692458 10.4885 0.752796 10.4029 0.892153 10.3216C 1.03857 10.2316 1.14761 10.1995 1.28043 10.2043L 1.28043 9.20435ZM -0.213851 10.1009C -0.595383 10.6732 -0.595383 11.4311 -0.213851 12.0034L 0.618199 11.4487C 0.4606 11.2123 0.4606 10.892 0.618199 10.6556L -0.213851 10.1009ZM -0.236774 11.9655L 2.18931 16.4133L 3.06721 15.9345L 0.641121 11.4867L -0.236774 11.9655Z"/>
<path id="path1_stroke" d="M 5.3913 23.413C 5.66745 23.413 5.8913 23.1892 5.8913 22.913C 5.8913 22.6369 5.66745 22.413 5.3913 22.413L 5.3913 23.413ZM 15.6739 8.08696C 15.6739 8.3631 15.8978 8.58696 16.1739 8.58696C 16.4501 8.58696 16.6739 8.3631 16.6739 8.08696L 15.6739 8.08696ZM 5.3913 22.413L 2.69565 22.413L 2.69565 23.413L 5.3913 23.413L 5.3913 22.413ZM 2.69565 22.413C 1.48919 22.413 0.5 21.4239 0.5 20.2174L -0.5 20.2174C -0.5 21.9761 0.936901 23.413 2.69565 23.413L 2.69565 22.413ZM 0.5 20.2174L 0.5 2.69565L -0.5 2.69565L -0.5 20.2174L 0.5 20.2174ZM 0.5 2.69565C 0.5 1.48919 1.48919 0.5 2.69565 0.5L 2.69565 -0.5C 0.936901 -0.5 -0.5 0.936901 -0.5 2.69565L 0.5 2.69565ZM 2.69565 0.5L 13.4783 0.5L 13.4783 -0.5L 2.69565 -0.5L 2.69565 0.5ZM 13.4783 0.5C 14.6847 0.5 15.6739 1.48919 15.6739 2.69565L 16.6739 2.69565C 16.6739 0.936901 15.237 -0.5 13.4783 -0.5L 13.4783 0.5ZM 15.6739 2.69565L 15.6739 8.08696L 16.6739 8.08696L 16.6739 2.69565L 15.6739 2.69565Z"/>
<path id="path2_stroke" d="M 0 -0.5C -0.276142 -0.5 -0.5 -0.276142 -0.5 0C -0.5 0.276142 -0.276142 0.5 0 0.5L 0 -0.5ZM 5.3913 0.5C 5.66745 0.5 5.8913 0.276142 5.8913 0C 5.8913 -0.276142 5.66745 -0.5 5.3913 -0.5L 5.3913 0.5ZM 0 0.5L 5.3913 0.5L 5.3913 -0.5L 0 -0.5L 0 0.5Z"/>
<path id="path3_stroke" d="M 2.19565 12.1304C 2.19565 12.4066 2.41951 12.6304 2.69565 12.6304C 2.97179 12.6304 3.19565 12.4066 3.19565 12.1304L 2.19565 12.1304ZM 0 -0.5C -0.276142 -0.5 -0.5 -0.276142 -0.5 0C -0.5 0.276142 -0.276142 0.5 0 0.5L 0 -0.5ZM 3.19565 12.1304L 3.19565 2.69565L 2.19565 2.69565L 2.19565 12.1304L 3.19565 12.1304ZM 3.19565 2.69565C 3.19565 0.936901 1.75875 -0.5 0 -0.5L 0 0.5C 1.20647 0.5 2.19565 1.48919 2.19565 2.69565L 3.19565 2.69565Z"/>
<path id="path4_stroke" d="M 2.69565 16.6739C 2.97179 16.6739 3.19565 16.4501 3.19565 16.1739C 3.19565 15.8978 2.97179 15.6739 2.69565 15.6739L 2.69565 16.6739ZM 8.08696 0.5C 8.3631 0.5 8.58696 0.276142 8.58696 0C 8.58696 -0.276142 8.3631 -0.5 8.08696 -0.5L 8.08696 0.5ZM 2.69565 15.6739C 1.48919 15.6739 0.5 14.6847 0.5 13.4783L -0.5 13.4783C -0.5 15.237 0.936901 16.6739 2.69565 16.6739L 2.69565 15.6739ZM 0.5 13.4783L 0.5 2.69565L -0.5 2.69565L -0.5 13.4783L 0.5 13.4783ZM 0.5 2.69565C 0.5 1.48919 1.48919 0.5 2.69565 0.5L 2.69565 -0.5C 0.936901 -0.5 -0.5 0.936901 -0.5 2.69565L 0.5 2.69565ZM 2.69565 0.5L 8.08696 0.5L 8.08696 -0.5L 2.69565 -0.5L 2.69565 0.5Z"/>
<path id="path5_stroke" d="M 0.5 0C 0.5 -0.276142 0.276142 -0.5 0 -0.5C -0.276142 -0.5 -0.5 -0.276142 -0.5 0L 0.5 0ZM -0.5 11.4565C -0.5 11.7327 -0.276142 11.9565 0 11.9565C 0.276142 11.9565 0.5 11.7327 0.5 11.4565L -0.5 11.4565ZM -0.5 0L -0.5 11.4565L 0.5 11.4565L 0.5 0L -0.5 0Z"/>
<path id="path6_stroke" d="M 6.23913 10.7826C 6.23913 10.9569 6.14693 11.1731 5.96438 11.3557C 5.78184 11.5382 5.56565 11.6304 5.3913 11.6304L 5.3913 12.6304C 5.89088 12.6304 6.3486 12.3857 6.67149 12.0628C 6.99438 11.7399 7.23913 11.2822 7.23913 10.7826L 6.23913 10.7826ZM 5.3913 11.6304L 1.34783 11.6304L 1.34783 12.6304L 5.3913 12.6304L 5.3913 11.6304ZM 1.34783 11.6304C 1.17349 11.6304 0.957293 11.5382 0.774749 11.3557C 0.592205 11.1731 0.5 10.9569 0.5 10.7826L -0.5 10.7826C -0.5 11.2822 -0.255248 11.7399 0.0676423 12.0628C 0.390533 12.3857 0.848254 12.6304 1.34783 12.6304L 1.34783 11.6304ZM 0.5 10.7826L 0.5 1.34783L -0.5 1.34783L -0.5 10.7826L 0.5 10.7826ZM 0.5 1.34783C 0.5 1.17349 0.592205 0.957293 0.774749 0.774749C 0.957293 0.592205 1.17349 0.5 1.34783 0.5L 1.34783 -0.5C 0.848254 -0.5 0.390533 -0.255248 0.0676423 0.0676423C -0.255248 0.390533 -0.5 0.848254 -0.5 1.34783L 0.5 1.34783ZM 1.34783 0.5L 5.3913 0.5L 5.3913 -0.5L 1.34783 -0.5L 1.34783 0.5ZM 5.3913 0.5C 5.56565 0.5 5.78184 0.592205 5.96438 0.774749C 6.14693 0.957293 6.23913 1.17349 6.23913 1.34783L 7.23913 1.34783C 7.23913 0.848254 6.99438 0.390533 6.67149 0.0676423C 6.3486 -0.255248 5.89088 -0.5 5.3913 -0.5L 5.3913 0.5ZM 6.23913 1.34783L 6.23913 10.7826L 7.23913 10.7826L 7.23913 1.34783L 6.23913 1.34783Z"/>
<path id="path7_stroke" d="M 0 -0.5C -0.276142 -0.5 -0.5 -0.276142 -0.5 0C -0.5 0.276142 -0.276142 0.5 0 0.5L 0 -0.5ZM 6.73913 0.5C 7.01527 0.5 7.23913 0.276142 7.23913 0C 7.23913 -0.276142 7.01527 -0.5 6.73913 -0.5L 6.73913 0.5ZM 0 0.5L 6.73913 0.5L 6.73913 -0.5L 0 -0.5L 0 0.5Z"/>
<path id="path8_stroke" d="M 0 -0.5C -0.276142 -0.5 -0.5 -0.276142 -0.5 0C -0.5 0.276142 -0.276142 0.5 0 0.5L 0 -0.5ZM 16.1739 0.5C 16.4501 0.5 16.6739 0.276142 16.6739 0C 16.6739 -0.276142 16.4501 -0.5 16.1739 -0.5L 16.1739 0.5ZM 0 0.5L 16.1739 0.5L 16.1739 -0.5L 0 -0.5L 0 0.5Z"/>
<path id="path9_stroke" d="M 0.5 0C 0.5 -0.276142 0.276142 -0.5 0 -0.5C -0.276142 -0.5 -0.5 -0.276142 -0.5 0L 0.5 0ZM -0.5 7.41304C -0.5 7.68919 -0.276142 7.91304 0 7.91304C 0.276142 7.91304 0.5 7.68919 0.5 7.41304L -0.5 7.41304ZM -0.5 0L -0.5 7.41304L 0.5 7.41304L 0.5 0L -0.5 0Z"/>
</defs>
</svg>
