<svg width="33" height="33" viewBox="0 0 33 33" version="1.1" xmlns="http://www.w3.org/2000/svg" xmlns:xlink="http://www.w3.org/1999/xlink">
<title>Group</title>
<desc>Created using Figma</desc>
<g id="Canvas" transform="translate(-159 81)">
<g id="Group">
<g id="Group">
<g id="Vector">
<use xlink:href="#path0_stroke" transform="translate(169.353 -66.5217)" fill="#DE3725"/>
</g>
<g id="Vector">
<use xlink:href="#path1_stroke" transform="translate(160 -66.5217)" fill="#DE3725"/>
</g>
<g id="Vector">
<use xlink:href="#path2_stroke" transform="translate(160.592 -74.6087)" fill="#DE3725"/>
</g>
<g id="Vector">
<use xlink:href="#path3_stroke" transform="translate(176.092 -80)" fill="#DE3725"/>
</g>
</g>
</g>
</g>
<defs>
<path id="path0_stroke" d="M 1.34783 7.58696C 1.07168 7.58696 0.847826 7.81081 0.847826 8.08696C 0.847826 8.3631 1.07168 8.58696 1.34783 8.58696L 1.34783 7.58696ZM 1.28539e-07 17.5217L -0.5 17.5217C -0.5 17.7979 -0.276142 18.0217 1.28539e-07 18.0217L 1.28539e-07 17.5217ZM 21.5652 17.5217L 21.5652 18.0217C 21.8414 18.0217 22.0652 17.7979 22.0652 17.5217L 21.5652 17.5217ZM 1.34783 0L 1.34783 -0.5C 1.07168 -0.5 0.847826 -0.276142 0.847826 1.11022e-16L 1.34783 0ZM 1.34783 8.58696L 4.04348 8.58696L 4.04348 7.58696L 1.34783 7.58696L 1.34783 8.58696ZM 4.04348 8.58696C 5.24994 8.58696 6.23913 9.57614 6.23913 10.7826L 7.23913 10.7826C 7.23913 9.02386 5.80223 7.58696 4.04348 7.58696L 4.04348 8.58696ZM 6.23913 10.7826C 6.23913 11.692 5.90387 12.1358 5.42267 12.4342C 4.87332 12.7747 4.13338 12.9315 3.24375 13.1628C 2.40422 13.3811 1.45234 13.6648 0.721272 14.313C -0.0399233 14.9879 -0.5 15.9964 -0.5 17.5217L 0.5 17.5217C 0.5 16.2167 0.882315 15.5067 1.38471 15.0612C 1.91723 14.589 2.65013 14.3504 3.49538 14.1307C 4.29053 13.9239 5.23537 13.7269 5.94961 13.2841C 6.732 12.799 7.23913 12.0297 7.23913 10.7826L 6.23913 10.7826ZM 1.28539e-07 18.0217L 21.5652 18.0217L 21.5652 17.0217L 1.28539e-07 17.0217L 1.28539e-07 18.0217ZM 22.0652 17.5217C 22.0652 16.0258 21.6024 15.0347 20.8418 14.368C 20.1129 13.7289 19.1637 13.4407 18.326 13.2146C 17.4394 12.9752 16.6974 12.8063 16.1476 12.4563C 15.6624 12.1474 15.3261 11.6928 15.3261 10.7826L 14.3261 10.7826C 14.3261 12.0289 14.8322 12.8043 15.6105 13.2998C 16.3244 13.7543 17.2671 13.9645 18.0653 14.18C 18.9124 14.4087 19.648 14.6512 20.1826 15.1199C 20.6857 15.561 21.0652 16.2546 21.0652 17.5217L 22.0652 17.5217ZM 15.3261 10.7826C 15.3261 9.57614 16.3153 8.58696 17.5217 8.58696L 17.5217 7.58696C 15.763 7.58696 14.3261 9.02386 14.3261 10.7826L 15.3261 10.7826ZM 17.5217 8.58696L 20.2174 8.58696L 20.2174 7.58696L 17.5217 7.58696L 17.5217 8.58696ZM 20.2174 8.58696C 20.7354 8.58696 21.2059 8.41212 21.5481 8.06986C 21.8904 7.7276 22.0652 7.2571 22.0652 6.73913L 21.0652 6.73913C 21.0652 7.02985 20.9705 7.23327 20.841 7.36275C 20.7115 7.49223 20.5081 7.58696 20.2174 7.58696L 20.2174 8.58696ZM 22.0652 6.73913L 22.0652 1.34783L 21.0652 1.34783L 21.0652 6.73913L 22.0652 6.73913ZM 22.0652 1.34783C 22.0652 0.829854 21.8904 0.359358 21.5481 0.0170988C 21.2059 -0.32516 20.7354 -0.5 20.2174 -0.5L 20.2174 0.5C 20.5081 0.5 20.7115 0.594726 20.841 0.724206C 20.9705 0.853685 21.0652 1.0571 21.0652 1.34783L 22.0652 1.34783ZM 20.2174 -0.5L 1.34783 -0.5L 1.34783 0.5L 20.2174 0.5L 20.2174 -0.5ZM 0.847826 0L 0.847826 8.08696L 1.84783 8.08696L 1.84783 0L 0.847826 0Z"/>
<path id="path1_stroke" d="M 0.322441 0.53913L 0.675994 0.892683C 0.699277 0.869401 0.720202 0.843876 0.738466 0.81648L 0.322441 0.53913ZM 0.0528759 1.61739L 0.540969 1.50893C 0.537242 1.49215 0.532652 1.47558 0.527218 1.45928L 0.0528759 1.61739ZM 10.7007 8.08696L 10.7007 8.58696C 10.9768 8.58696 11.2007 8.3631 11.2007 8.08696L 10.7007 8.08696ZM 10.7007 0L 11.2007 0C 11.2007 -0.276142 10.9768 -0.5 10.7007 -0.5L 10.7007 0ZM 1.4007 -0.5C 0.881081 -0.5 0.294218 -0.319923 -0.0935841 0.26178L 0.738466 0.81648C 0.889794 0.589488 1.11163 0.5 1.4007 0.5L 1.4007 -0.5ZM -0.0311123 0.185577C -0.414987 0.569451 -0.624431 1.16661 -0.421466 1.77551L 0.527218 1.45928C 0.460617 1.25948 0.520739 1.04794 0.675994 0.892683L -0.0311123 0.185577ZM -0.435218 1.72586C 0.421038 5.57901 3.84722 8.58696 8.00505 8.58696L 8.00505 7.58696C 4.34549 7.58696 1.30211 4.93404 0.540969 1.50893L -0.435218 1.72586ZM 8.00505 8.58696L 10.7007 8.58696L 10.7007 7.58696L 8.00505 7.58696L 8.00505 8.58696ZM 11.2007 8.08696L 11.2007 0L 10.2007 0L 10.2007 8.08696L 11.2007 8.08696ZM 10.7007 -0.5L 1.4007 -0.5L 1.4007 0.5L 10.7007 0.5L 10.7007 -0.5Z"/>
<path id="path2_stroke" d="M -3.21347e-08 -0.5C -0.276142 -0.5 -0.5 -0.276142 -0.5 0C -0.5 0.276142 -0.276142 0.5 -3.21347e-08 0.5L -3.21347e-08 -0.5ZM 15.5 0.5C 15.7761 0.5 16 0.276142 16 0C 16 -0.276142 15.7761 -0.5 15.5 -0.5L 15.5 0.5ZM -3.21347e-08 0.5L 15.5 0.5L 15.5 -0.5L -3.21347e-08 -0.5L -3.21347e-08 0.5Z"/>
<path id="path3_stroke" d="M -5.14155e-07 0L -5.14155e-07 -0.5C -0.276143 -0.5 -0.500001 -0.276142 -0.500001 1.11022e-16L -5.14155e-07 0ZM 8.08696 0L 8.58696 0C 8.58696 -0.276142 8.3631 -0.5 8.08696 -0.5L 8.08696 0ZM 8.08696 10.7826L 8.08696 11.2826C 8.3631 11.2826 8.58696 11.0588 8.58696 10.7826L 8.08696 10.7826ZM -5.14155e-07 10.7826L -0.500001 10.7826C -0.500001 11.0588 -0.276143 11.2826 -5.14155e-07 11.2826L -5.14155e-07 10.7826ZM -5.14155e-07 0.5L 8.08696 0.5L 8.08696 -0.5L -5.14155e-07 -0.5L -5.14155e-07 0.5ZM 7.58696 0L 7.58696 10.7826L 8.58696 10.7826L 8.58696 0L 7.58696 0ZM 8.08696 10.2826L -5.14155e-07 10.2826L -5.14155e-07 11.2826L 8.08696 11.2826L 8.08696 10.2826ZM 0.499999 10.7826L 0.499999 0L -0.500001 0L -0.500001 10.7826L 0.499999 10.7826Z"/>
</defs>
</svg>
