<svg width="102" height="109" viewBox="0 0 102 109" version="1.1" xmlns="http://www.w3.org/2000/svg" xmlns:xlink="http://www.w3.org/1999/xlink">
<title>Vector</title>
<desc>Created using Figma</desc>
<g id="Canvas" transform="translate(-214 127)">
<g id="Vector">
<use xlink:href="#path0_fill" transform="translate(214 -127)" fill="#FFFFFF"/>
<use xlink:href="#path1_fill" transform="translate(214 -127)" fill="#FFFFFF"/>
<use xlink:href="#path2_fill" transform="translate(214 -127)" fill="#FFFFFF"/>
</g>
</g>
<defs>
<path id="path0_fill" fill-rule="evenodd" d="M 33.8947 69.0925L 33.8947 59.0878L 43.8947 59.0878L 43.8947 72.6098C 43.8947 74.7197 42.5702 76.6026 40.5844 77.3156L 16.3738 86.0083C 16.3366 86.0217 16.2991 86.0346 16.2616 86.0471C 12.5948 87.2661 10 91.0755 10 94.8244L 10 99L 92 99L 92 94.8244C 92 90.6918 89.4976 87.2968 85.7384 86.0471C 85.7009 86.0346 85.6634 86.0217 85.6262 86.0083L 61.4156 77.3156C 59.4298 76.6026 58.1053 74.7197 58.1053 72.6098L 58.1053 59.0878L 68.1053 59.0878L 68.1053 69.0925L 88.9536 76.578C 96.7819 79.2085 102 86.4225 102 94.8244L 102 104C 102 106.761 99.7614 109 97 109L 5 109C 2.23858 109 0 106.761 0 104L 0 94.8244C 0 87.0031 5.12632 79.2419 13.046 76.5781L 33.8947 69.0925Z"/>
<path id="path1_fill" fill-rule="evenodd" d="M 51 10C 41.194 10 31.7895 19.8553 31.7895 33.9756C 31.7895 48.0959 41.194 57.9512 51 57.9512C 60.806 57.9512 70.2105 48.0959 70.2105 33.9756C 70.2105 19.8553 60.806 10 51 10ZM 21.7895 33.9756C 21.7895 16.0903 34.0638 0 51 0C 67.9362 0 80.2105 16.0903 80.2105 33.9756C 80.2105 51.8609 67.9362 67.9512 51 67.9512C 34.0638 67.9512 21.7895 51.8609 21.7895 33.9756Z"/>
<path id="path2_fill" fill-rule="evenodd" d="M 54.9439 17.3859C 56.723 17.4108 58.3547 18.3793 59.2288 19.9291C 61.1322 23.304 62.9426 25.0725 64.6838 25.9769C 66.3599 26.8476 68.5681 27.2271 71.9228 26.6367C 72.209 26.5863 72.499 26.561 72.7895 26.561L 75.2106 26.561L 75.2106 36.561L 73.2076 36.561C 68.4989 37.3207 64.0816 36.9328 60.0741 34.8511C 57.8555 33.6986 55.9452 32.1211 54.2688 30.2192C 52.7254 31.401 51.0392 32.4201 49.3577 33.2586C 45.5358 35.1396 40.5448 36.5143 36.4737 36.561C 32.6729 36.544 28.3441 35.7292 24.5053 33.31L 30.0421 24.9827C 32.0138 26.4269 33.4956 26.5779 36.4737 26.561C 39.1816 26.6076 41.938 25.8092 44.895 24.3096C 47.8557 22.8332 49.8234 21.0809 50.5893 19.8079C 51.5065 18.2832 53.1648 17.3609 54.9439 17.3859Z"/>
</defs>
</svg>
