<svg width="33" height="32" viewBox="0 0 33 32" version="1.1" xmlns="http://www.w3.org/2000/svg" xmlns:xlink="http://www.w3.org/1999/xlink">
<title>Icon for component</title>
<desc>Created using Figma</desc>
<g id="Canvas" transform="translate(-21 -16)">
<g id="Icon for component">
<g id="Group">
<g id="Group">
<g id="Vector">
<use xlink:href="#path0_stroke" transform="translate(22 46.6522)" fill="#DE3725"/>
</g>
<g id="Vector">
<use xlink:href="#path1_stroke" transform="translate(23.3478 39.913)" fill="#DE3725"/>
</g>
<g id="Vector">
<use xlink:href="#path2_stroke" transform="translate(31.4348 33.1739)" fill="#DE3725"/>
</g>
<g id="Vector">
<use xlink:href="#path3_stroke" transform="translate(39.5217 35.8696)" fill="#DE3725"/>
</g>
<g id="Vector">
<use xlink:href="#path4_stroke" transform="translate(47.6087 26.4348)" fill="#DE3725"/>
</g>
</g>
<g id="Group">
<g id="Vector">
<use xlink:href="#path5_stroke" transform="translate(25.3696 17)" fill="#DE3725"/>
</g>
<g id="Vector">
<use xlink:href="#path6_stroke" transform="translate(44.913 17)" fill="#DE3725"/>
</g>
</g>
</g>
</g>
</g>
<defs>
<path id="path0_stroke" d="M 0 -0.5C -0.276142 -0.5 -0.5 -0.276142 -0.5 0C -0.5 0.276142 -0.276142 0.5 0 0.5L 0 -0.5ZM 31 0.5C 31.2761 0.5 31.5 0.276142 31.5 0C 31.5 -0.276142 31.2761 -0.5 31 -0.5L 31 0.5ZM 0 0.5L 31 0.5L 31 -0.5L 0 -0.5L 0 0.5Z"/>
<path id="path1_stroke" d="M 3.54348 6.73913C 3.54348 7.01527 3.76734 7.23913 4.04348 7.23913C 4.31962 7.23913 4.54348 7.01527 4.54348 6.73913L 3.54348 6.73913ZM 4.04348 0L 4.54348 0C 4.54348 -0.276142 4.31962 -0.5 4.04348 -0.5L 4.04348 0ZM 0 0L 0 -0.5C -0.276142 -0.5 -0.5 -0.276142 -0.5 1.11022e-16L 0 0ZM -0.5 6.73913C -0.5 7.01527 -0.276142 7.23913 0 7.23913C 0.276142 7.23913 0.5 7.01527 0.5 6.73913L -0.5 6.73913ZM 4.54348 6.73913L 4.54348 0L 3.54348 0L 3.54348 6.73913L 4.54348 6.73913ZM 4.04348 -0.5L 0 -0.5L 0 0.5L 4.04348 0.5L 4.04348 -0.5ZM -0.5 0L -0.5 6.73913L 0.5 6.73913L 0.5 0L -0.5 0Z"/>
<path id="path2_stroke" d="M 3.54348 13.4783C 3.54348 13.7544 3.76734 13.9783 4.04348 13.9783C 4.31962 13.9783 4.54348 13.7544 4.54348 13.4783L 3.54348 13.4783ZM 4.04348 0L 4.54348 0C 4.54348 -0.276142 4.31962 -0.5 4.04348 -0.5L 4.04348 0ZM 0 0L 0 -0.5C -0.276142 -0.5 -0.5 -0.276142 -0.5 1.11022e-16L 0 0ZM -0.5 13.4783C -0.5 13.7544 -0.276142 13.9783 0 13.9783C 0.276142 13.9783 0.5 13.7544 0.5 13.4783L -0.5 13.4783ZM 4.54348 13.4783L 4.54348 0L 3.54348 0L 3.54348 13.4783L 4.54348 13.4783ZM 4.04348 -0.5L 0 -0.5L 0 0.5L 4.04348 0.5L 4.04348 -0.5ZM -0.5 0L -0.5 13.4783L 0.5 13.4783L 0.5 0L -0.5 0Z"/>
<path id="path3_stroke" d="M 3.54348 10.7826C 3.54348 11.0588 3.76734 11.2826 4.04348 11.2826C 4.31962 11.2826 4.54348 11.0588 4.54348 10.7826L 3.54348 10.7826ZM 4.04348 0L 4.54348 0C 4.54348 -0.276142 4.31962 -0.5 4.04348 -0.5L 4.04348 0ZM 0 0L 0 -0.5C -0.276142 -0.5 -0.5 -0.276142 -0.5 1.11022e-16L 0 0ZM -0.5 10.7826C -0.5 11.0588 -0.276142 11.2826 0 11.2826C 0.276142 11.2826 0.5 11.0588 0.5 10.7826L -0.5 10.7826ZM 4.54348 10.7826L 4.54348 0L 3.54348 0L 3.54348 10.7826L 4.54348 10.7826ZM 4.04348 -0.5L 0 -0.5L 0 0.5L 4.04348 0.5L 4.04348 -0.5ZM -0.5 0L -0.5 10.7826L 0.5 10.7826L 0.5 0L -0.5 0Z"/>
<path id="path4_stroke" d="M 3.54348 20.2174C 3.54348 20.4935 3.76734 20.7174 4.04348 20.7174C 4.31962 20.7174 4.54348 20.4935 4.54348 20.2174L 3.54348 20.2174ZM 4.04348 0L 4.54348 0C 4.54348 -0.276142 4.31962 -0.5 4.04348 -0.5L 4.04348 0ZM 0 0L 0 -0.5C -0.276142 -0.5 -0.5 -0.276142 -0.5 1.11022e-16L 0 0ZM -0.5 20.2174C -0.5 20.4935 -0.276142 20.7174 0 20.7174C 0.276142 20.7174 0.5 20.4935 0.5 20.2174L -0.5 20.2174ZM 4.54348 20.2174L 4.54348 0L 3.54348 0L 3.54348 20.2174L 4.54348 20.2174ZM 4.04348 -0.5L 0 -0.5L 0 0.5L 4.04348 0.5L 4.04348 -0.5ZM -0.5 0L -0.5 20.2174L 0.5 20.2174L 0.5 0L -0.5 0Z"/>
<path id="path5_stroke" d="M 25.3012 0.340226C 25.4891 0.13787 25.4774 -0.178495 25.275 -0.366397C 25.0727 -0.554298 24.7563 -0.542581 24.5684 -0.340226L 25.3012 0.340226ZM 16.1739 9.43478L 16.0158 9.90912C 16.2018 9.97113 16.4069 9.91869 16.5403 9.77501L 16.1739 9.43478ZM 8.08696 6.73913L 8.24507 6.26479C 8.0808 6.21003 7.89989 6.24417 7.76686 6.35502L 8.08696 6.73913ZM -0.320092 13.0942C -0.532231 13.2709 -0.560893 13.5862 -0.384111 13.7984C -0.207329 14.0105 0.107954 14.0392 0.320092 13.8624L -0.320092 13.0942ZM 24.5684 -0.340226L 15.8075 9.09456L 16.5403 9.77501L 25.3012 0.340226L 24.5684 -0.340226ZM 16.332 8.96044L 8.24507 6.26479L 7.92884 7.21347L 16.0158 9.90912L 16.332 8.96044ZM 7.76686 6.35502L -0.320092 13.0942L 0.320092 13.8624L 8.40705 7.12324L 7.76686 6.35502Z"/>
<path id="path6_stroke" d="M 0 -0.5C -0.276142 -0.5 -0.5 -0.276142 -0.5 0C -0.5 0.276142 -0.276142 0.5 0 0.5L 0 -0.5ZM 5.3913 0L 5.8913 0C 5.8913 -0.276142 5.66745 -0.5 5.3913 -0.5L 5.3913 0ZM 4.8913 5.3913C 4.8913 5.66745 5.11516 5.8913 5.3913 5.8913C 5.66745 5.8913 5.8913 5.66745 5.8913 5.3913L 4.8913 5.3913ZM 0 0.5L 5.3913 0.5L 5.3913 -0.5L 0 -0.5L 0 0.5ZM 4.8913 0L 4.8913 5.3913L 5.8913 5.3913L 5.8913 0L 4.8913 0Z"/>
</defs>
</svg>
